<?xml version="1.0" encoding="UTF-8"?>
<svg id="_图层_1" data-name="图层 1" xmlns="http://www.w3.org/2000/svg" xmlns:xlink="http://www.w3.org/1999/xlink" viewBox="0 0 576 152">
  <defs>
    <style>
      .cls-1 {
        fill: none;
      }

      .cls-1, .cls-2, .cls-3, .cls-4 {
        stroke-width: 0px;
      }

      .cls-2 {
        fill: url(#_未命名的渐变_2);
      }

      .cls-3 {
        fill: url(#_未命名的渐变_2-2);
      }

      .cls-4 {
        fill: #fff;
      }
    </style>
    <linearGradient id="_未命名的渐变_2" data-name="未命名的渐变 2" x1="19.77" y1="76" x2="119.37" y2="76" gradientUnits="userSpaceOnUse">
      <stop offset="0" stop-color="#a6a7aa"/>
      <stop offset="1" stop-color="#fff"/>
    </linearGradient>
    <linearGradient id="_未命名的渐变_2-2" data-name="未命名的渐变 2" x1="110.71" y1="95.08" x2="173.95" y2="95.08" xlink:href="#_未命名的渐变_2"/>
  </defs>
  <g>
    <path class="cls-2" d="M67.3,107.68c2.01,10.14-1.5,19.69-10.38,25.3-14.33,9.05-33.77.91-36.74-15.81-2.44-13.73,6.29-25.32,18.34-27.79,2.35-.48,4.74-.76,7.1-1.18,17.95-3.18,30.25-20.81,27.08-38.76-.81-4.6-2.03-9.11-1.27-13.93,2.01-12.73,12.83-21.17,26.26-20.17,11.9.88,21.21,11.5,21.67,23.62.38,10.29-8.77,22.92-20.2,24-7.25.69-14.28,2.31-20.03,7.18-11.13,9.41-15.51,21.21-11.83,37.53Z"/>
    <g>
      <g>
        <path class="cls-4" d="M244.36,96.41c-.66-3.93-1.15-6.06-1.97-8.84l-2.21-6.96h-23.33l-2.21,6.96c-1.07,3.27-1.64,5.81-2.05,8.84h-19.16c1.23-2.46,1.97-4.42,3.93-9.99l17.68-49.28c1.47-4.01,2.21-6.47,2.62-8.84h21.37c.57,2.37,1.14,4.5,2.78,8.84l17.77,49.28c1.55,4.34,2.87,7.7,3.93,9.99h-19.16ZM228.39,42.3l-7.61,24.56h15.39l-7.78-24.56Z"/>
        <path class="cls-4" d="M320.49,96.98c-3.52-.41-6.47-.57-13.51-.57h-25.79c-6.22,0-8.51.08-12.03.25.49-3.27.65-6.3.65-11.95v-44.7c0-5.07-.16-7.94-.65-11.95,3.36.17,5.65.25,12.03.25h26.12c5.57,0,8.35-.16,12.2-.57v15.31c-3.77-.41-6.71-.57-12.2-.57h-21.29v12.03h17.68c5.4,0,7.37-.08,12.28-.57v15.14c-3.85-.41-6.63-.57-12.28-.57h-17.68v13.75h21.12c6.22,0,9.82-.16,13.34-.57v15.31Z"/>
        <path class="cls-4" d="M363.78,84.05c0,4.91.17,8.52.66,12.36h-18.09c.49-3.85.66-7.2.66-12.36v-41.26h-9.66c-5.16,0-6.55.08-12.36.57v-15.63c2.7.33,7.2.57,12.2.57h35.86c5.73,0,9.01-.16,12.77-.57v15.63c-3.68-.41-6.88-.57-12.77-.57h-9.25v41.26Z"/>
        <path class="cls-4" d="M433.44,96.41c-.49-2.62-1.47-5.98-4.01-12.77-2.62-7.12-3.6-9-5.65-10.8-1.72-1.56-3.77-2.21-6.39-2.21h-8.35v13.43c0,5.57.16,8.6.65,12.36h-17.6c.49-3.77.65-6.22.65-12.28v-44.05c0-5.07-.16-8.1-.65-12.03,3.6.17,6.63.25,12.2.25h21.29c13.26,0,20.96,6.88,20.96,18.66,0,5.81-1.64,10.4-4.83,13.43-2.05,1.88-3.77,2.78-7.78,4.09,4.18,1.31,6.06,3.19,8.68,9,1.23,2.62,2.37,5.4,6.06,14.25.9,2.29,1.88,4.34,3.93,8.68h-19.16ZM421.82,56.62c4.83,0,7.78-2.95,7.78-7.61s-2.62-6.96-7.7-6.96h-12.85v14.57h12.77Z"/>
        <path class="cls-4" d="M477.4,28.3c-.49,3.36-.65,6.14-.65,12.12v43.88c0,5.65.16,8.68.65,12.12h-18.01c.49-3.19.65-6.63.65-12.12v-43.88c0-6.14-.16-8.51-.65-12.12h18.01Z"/>
        <path class="cls-4" d="M510.88,86.34c-2.21,3.44-3.93,6.3-5.97,10.07h-21.7c4.42-5.4,6.06-7.53,8.43-10.81l18.01-25.3-15.31-21.53c-2.54-3.68-4.99-6.88-8.02-10.48h21.2c1.31,3.03,3.11,6.3,6.06,10.81l6.22,9.5,6.14-9.58c3.27-5.16,4.67-7.61,5.98-10.73h21.04c-2.95,3.68-4.91,6.22-7.78,10.32l-15.39,21.61,18.09,25.38c2.62,3.68,4.91,6.63,8.35,10.81h-21.7c-1.56-2.95-3.11-5.73-5.89-10.07l-8.93-13.83-8.84,13.83Z"/>
      </g>
      <g>
        <path class="cls-4" d="M273,126c0,2.31-.36,3.87-1.09,4.7s-2.38,1.24-4.96,1.24l-4.69.17h-2.02l-4.03-.17c-3.23-.33-4.85-2.07-4.85-5.21l-.11-3.47c0-1.38.01-2.41.04-3.09.03-.67.16-1.61.4-2.81.24-1.2.81-2.11,1.72-2.73s2.17-.93,3.79-.93c.73-.09,1.41-.14,2.06-.16.64-.02,1.4-.03,2.27-.03h3.27c1.05,0,1.91.02,2.56.07.66.05,1.51.18,2.58.4,1.06.22,1.8.81,2.22,1.77.42.96.63,2.24.63,3.84h-2.18v-.17c0-.84-.05-1.53-.15-2.07-.1-.54-.34-.93-.71-1.18-.37-.24-1.06-.43-2.06-.56-1-.13-2.38-.2-4.14-.2-.65,0-1.64.03-2.97.1-1.33.07-2.33.1-3,.1-1.57.13-2.56.41-3,.84s-.71,1.17-.82,2.23c-.11,1.06-.17,2.02-.19,2.89-.02.87-.03,1.7-.03,2.48,0,2.32.23,3.92.7,4.8.46.88,1.69,1.31,3.69,1.31h8.32c1.67,0,2.83-.2,3.49-.59.66-.4.98-1.35.98-2.85v-.73h2.29Z"/>
        <path class="cls-4" d="M277.2,117.42c.34-1.51,1.03-2.54,2.04-3.09s2.36-.82,4.03-.82h8.04c3.78,0,6.2.5,7.27,1.51s1.6,3.36,1.6,7.05v1.23c0,1.31-.08,2.69-.23,4.13-.15,1.45-.67,2.56-1.55,3.34s-2.2,1.17-3.97,1.17c-.54.06-1.24.09-2.09.11-.84.02-1.65.03-2.41.03h-4.55c-1.11,0-2.18-.06-3.2-.16-1.03-.11-1.89-.31-2.59-.6-.7-.29-1.27-.8-1.72-1.52-.44-.72-.73-1.65-.86-2.8-.13-1.15-.19-2.51-.19-4.07,0-1.48.02-2.54.05-3.19.04-.65.15-1.42.33-2.31ZM279.11,124.18c0,2.3.24,3.86.74,4.67s1.8,1.22,3.91,1.22l4.7.11h2.27c1.3,0,2.6-.06,3.91-.19,1.31-.13,2.18-.56,2.61-1.3.43-.74.64-1.84.64-3.32v-3.74c0-1.15-.05-2.14-.14-2.99s-.29-1.49-.6-1.94-.71-.74-1.21-.87c-.5-.13-1.01-.23-1.53-.27s-1.07-.07-1.65-.07l-4.28-.06-4.23.06c-2.07,0-3.43.27-4.09.81-.66.54-.98,1.81-.98,3.82l-.08,2.74v1.34Z"/>
        <path class="cls-4" d="M319.51,113.7c2.2,0,3.78.37,4.73,1.1.95.74,1.43,2.17,1.43,4.3,0,1.63-.24,2.76-.72,3.37s-1.53,1.03-3.15,1.27c1.22.16,2.11.46,2.69.89.57.43.86,1.2.86,2.33v4.93h-2.18v-4.03c0-1.34-.29-2.23-.86-2.67-.57-.44-1.57-.65-2.99-.65h-12.4v7.36h-2.21v-18.18h14.8ZM319.1,122.7c1.6,0,2.71-.25,3.34-.75.63-.5.94-1.5.94-2.99s-.34-2.34-1.01-2.77c-.67-.43-1.78-.64-3.33-.64h-12.13v7.14h12.19Z"/>
        <path class="cls-4" d="M345.11,113.7c1.98,0,3.38.37,4.19,1.1.81.74,1.21,2.1,1.21,4.08,0,1.03-.07,1.95-.22,2.75-.15.8-.43,1.42-.86,1.85-.43.44-.96.76-1.59.97-.64.21-1.59.31-2.86.31h-12.73v7.12h-2.21v-18.18h15.08ZM343.64,122.95c1.82,0,3.03-.23,3.65-.68.62-.46.93-1.55.93-3.27,0-1.27-.24-2.16-.71-2.67s-1.35-.76-2.62-.76h-12.65v7.39h11.4Z"/>
        <path class="cls-4" d="M354.16,117.42c.34-1.51,1.03-2.54,2.04-3.09s2.36-.82,4.03-.82h8.04c3.78,0,6.2.5,7.27,1.51s1.6,3.36,1.6,7.05v1.23c0,1.31-.08,2.69-.23,4.13-.15,1.45-.67,2.56-1.55,3.34s-2.2,1.17-3.97,1.17c-.54.06-1.24.09-2.09.11-.84.02-1.65.03-2.41.03h-4.55c-1.11,0-2.18-.06-3.2-.16-1.03-.11-1.89-.31-2.59-.6-.7-.29-1.27-.8-1.72-1.52-.44-.72-.73-1.65-.86-2.8-.13-1.15-.19-2.51-.19-4.07,0-1.48.02-2.54.05-3.19.04-.65.15-1.42.33-2.31ZM356.07,124.18c0,2.3.24,3.86.74,4.67s1.8,1.22,3.91,1.22l4.7.11h2.27c1.3,0,2.6-.06,3.91-.19,1.31-.13,2.18-.56,2.61-1.3.43-.74.64-1.84.64-3.32v-3.74c0-1.15-.05-2.14-.14-2.99s-.29-1.49-.6-1.94-.71-.74-1.21-.87c-.5-.13-1.01-.23-1.53-.27s-1.07-.07-1.65-.07l-4.28-.06-4.23.06c-2.07,0-3.43.27-4.09.81-.66.54-.98,1.81-.98,3.82l-.08,2.74v1.34Z"/>
        <path class="cls-4" d="M396.48,113.7c2.2,0,3.78.37,4.73,1.1.95.74,1.43,2.17,1.43,4.3,0,1.63-.24,2.76-.72,3.37s-1.53,1.03-3.15,1.27c1.22.16,2.11.46,2.69.89.57.43.86,1.2.86,2.33v4.93h-2.18v-4.03c0-1.34-.29-2.23-.86-2.67-.57-.44-1.57-.65-2.99-.65h-12.4v7.36h-2.21v-18.18h14.8ZM396.07,122.7c1.6,0,2.71-.25,3.34-.75.63-.5.94-1.5.94-2.99s-.34-2.34-1.01-2.77c-.67-.43-1.78-.64-3.33-.64h-12.13v7.14h12.19Z"/>
        <path class="cls-4" d="M408.84,127.8l-2.32,4.09h-2.6l10.74-18.18h2.94l10.82,18.18h-2.54l-2.37-4.09h-14.68ZM416.13,115.34l-6.25,10.63h12.58l-6.33-10.63Z"/>
        <path class="cls-4" d="M439.06,131.89h-2.21v-16.33h-9.16v-1.85h20.58v1.85h-9.21v16.33Z"/>
        <path class="cls-4" d="M452.86,113.7v18.18h-2.21v-18.18h2.21Z"/>
        <path class="cls-4" d="M457.76,117.42c.34-1.51,1.03-2.54,2.04-3.09s2.36-.82,4.03-.82h8.04c3.78,0,6.2.5,7.27,1.51s1.6,3.36,1.6,7.05v1.23c0,1.31-.08,2.69-.23,4.13-.15,1.45-.67,2.56-1.55,3.34s-2.2,1.17-3.97,1.17c-.54.06-1.24.09-2.09.11-.84.02-1.65.03-2.41.03h-4.55c-1.11,0-2.18-.06-3.2-.16-1.03-.11-1.89-.31-2.59-.6-.7-.29-1.27-.8-1.72-1.52-.44-.72-.73-1.65-.86-2.8-.13-1.15-.19-2.51-.19-4.07,0-1.48.02-2.54.05-3.19.04-.65.15-1.42.33-2.31ZM459.67,124.18c0,2.3.24,3.86.74,4.67s1.8,1.22,3.91,1.22l4.7.11h2.27c1.3,0,2.6-.06,3.91-.19,1.31-.13,2.18-.56,2.61-1.3.43-.74.64-1.84.64-3.32v-3.74c0-1.15-.05-2.14-.14-2.99s-.29-1.49-.6-1.94-.71-.74-1.21-.87c-.5-.13-1.01-.23-1.53-.27s-1.07-.07-1.65-.07l-4.28-.06-4.23.06c-2.07,0-3.43.27-4.09.81-.66.54-.98,1.81-.98,3.82l-.08,2.74v1.34Z"/>
        <path class="cls-4" d="M487.48,131.89h-2.21v-18.18h3.67l16.78,16.44v-16.44h2.21v18.18h-3.63l-16.82-16.52v16.52Z"/>
      </g>
    </g>
    <path class="cls-3" d="M123.68,85.79c-6.66-1.34-11.57-5.88-12.73-12.68-1.88-10.98,7.96-20.71,18.85-18.3,8.95,1.98,13.77,10.2,12.23,18.13-.3,1.55-.73,3.07-1.07,4.6-2.59,11.69,5,23.59,16.68,26.2,3,.67,6.04,1.06,8.77,2.74,7.22,4.43,9.61,13.12,5.62,21.01-3.54,6.99-12.32,9.97-19.79,7.19-6.34-2.36-11.69-11.1-9.47-18.3,1.41-4.57,2.2-9.25.7-13.96-2.9-9.12-8.95-14.76-19.78-16.64Z"/>
  </g>
  <rect class="cls-1" width="576" height="152"/>
</svg>